<?xml version="1.0" standalone="no"?>
<!DOCTYPE svg PUBLIC "-//W3C//DTD SVG 20010904//EN"
 "http://www.w3.org/TR/2001/REC-SVG-20010904/DTD/svg10.dtd">
<svg version="1.0" xmlns="http://www.w3.org/2000/svg"
 width="512.000000pt" height="512.000000pt" viewBox="0 0 512.000000 512.000000"
 preserveAspectRatio="xMidYMid meet">

<g transform="translate(0.000000,512.000000) scale(0.100000,-0.100000)"
fill="#000000" stroke="none">
<path d="M2092 4961 c-149 -51 -250 -257 -225 -456 16 -123 46 -189 118 -262
50 -50 72 -65 120 -78 281 -82 479 355 300 661 -36 61 -109 122 -168 139 -64
19 -80 19 -145 -4z"/>
<path d="M1556 4777 c-25 -6 -57 -27 -87 -57 -134 -134 -112 -404 40 -507 55
-37 112 -40 176 -8 63 30 104 82 130 163 25 74 17 210 -14 272 -58 113 -147
163 -245 137z"/>
<path d="M1115 4588 c-108 -38 -159 -193 -111 -337 20 -58 72 -123 119 -147
38 -20 107 -20 145 0 67 35 104 110 104 211 1 131 -71 247 -168 274 -46 13
-50 13 -89 -1z"/>
<path d="M801 4287 c-48 -24 -66 -62 -66 -141 0 -63 4 -79 30 -122 53 -84 136
-115 202 -74 49 29 66 71 61 151 -3 56 -9 76 -34 111 -55 79 -130 108 -193 75z"/>
<path d="M2719 4165 c-213 -68 -303 -424 -165 -659 37 -63 109 -123 169 -141
63 -19 71 -19 137 1 183 54 289 339 211 568 -24 67 -43 99 -95 154 -74 79
-166 106 -257 77z"/>
<path d="M1675 4133 c-238 -31 -493 -123 -670 -243 -256 -174 -357 -375 -358
-715 -1 -236 46 -346 267 -630 47 -60 105 -147 128 -193 42 -82 42 -85 46
-205 2 -69 -3 -195 -12 -290 -20 -205 -20 -243 -1 -332 44 -208 184 -357 385
-406 75 -19 259 -17 337 4 173 46 288 154 349 328 23 66 26 89 25 205 -1 219
-50 348 -207 549 -213 272 -221 286 -231 416 -8 108 10 197 64 309 44 91 52
102 218 265 197 193 259 278 301 412 34 107 32 222 -6 298 -51 105 -174 190
-318 220 -61 13 -242 18 -317 8z"/>
<path d="M549 4065 c-52 -28 -78 -144 -49 -220 31 -82 118 -143 185 -131 42 8
92 63 101 111 17 92 -32 202 -108 241 -34 18 -95 17 -129 -1z"/>
<path d="M3315 3981 c-47 -12 -70 -27 -112 -75 -50 -56 -73 -127 -73 -221 0
-135 50 -233 142 -279 28 -14 61 -26 72 -26 80 0 159 58 203 148 25 51 28 67
27 157 0 79 -5 110 -21 146 -50 110 -148 172 -238 150z"/>
<path d="M3746 3785 c-79 -28 -136 -106 -155 -211 -28 -152 53 -286 173 -286
117 0 210 126 209 282 -1 105 -40 175 -118 211 -47 22 -58 22 -109 4z"/>
<path d="M4035 3481 c-71 -44 -105 -108 -105 -198 0 -171 177 -209 266 -57 35
59 43 147 19 199 -34 69 -117 96 -180 56z"/>
<path d="M2963 3326 c-141 -33 -264 -119 -313 -221 -38 -78 -40 -197 -5 -300
45 -137 100 -211 295 -405 155 -154 181 -185 218 -256 57 -111 76 -195 69
-309 -9 -145 -18 -163 -227 -425 -154 -194 -212 -343 -213 -545 0 -214 68
-368 209 -468 70 -50 147 -75 269 -89 324 -36 563 129 622 430 15 76 15 100 2
250 -8 92 -14 237 -14 323 l0 155 38 76 c20 42 73 123 117 180 237 308 285
419 284 658 -1 146 -29 299 -73 394 -112 245 -426 450 -823 537 -123 27 -368
35 -455 15z"/>
<path d="M4285 3268 c-61 -33 -103 -100 -112 -177 -7 -61 9 -110 48 -147 25
-24 39 -29 79 -29 60 0 113 39 149 109 47 91 25 213 -44 244 -32 15 -94 15
-120 0z"/>
</g>
</svg>
